<?xml version="1.0" encoding="utf-8"?>
<!-- Generator: Adobe Illustrator 22.1.0, SVG Export Plug-In . SVG Version: 6.00 Build 0)  -->
<!DOCTYPE svg PUBLIC "-//W3C//DTD SVG 1.1//EN" "http://www.w3.org/Graphics/SVG/1.1/DTD/svg11.dtd">
<svg version="1.1" id="Capa_1" xmlns="http://www.w3.org/2000/svg" xmlns:xlink="http://www.w3.org/1999/xlink" x="0px" y="0px"
	 viewBox="0 0 450.9 269" style="enable-background:new 0 0 450.9 269;" xml:space="preserve">
<style type="text/css">
	.st0{fill:none;stroke:#000000;stroke-miterlimit:10;}
</style>
<path class="st0" d="M349.7,72.8c-12.7,0-24.8,2.6-35.8,7.2l-26.4-51.2h36.9c4,0,7.3,3.3,7.3,7.3s-3.3,7.3-7.3,7.3h-7.9
	c-4.1,0-7.5,3.4-7.5,7.5s3.4,7.5,7.5,7.5h7.9c12.3,0,22.3-10,22.3-22.3s-10-22.3-22.3-22.3h-49.2c-2.6,0-5,1.4-6.4,3.6
	s-1.5,5-0.3,7.3l13.1,25.5H173.4l-10.9-21.4h17.3c4.1,0,7.5-3.4,7.5-7.5s-3.4-7.5-7.5-7.5h-49.2c-4.1,0-7.5,3.4-7.5,7.5
	s3.4,7.5,7.5,7.5h15.1l14.6,28.6l-17.1,26.5c-13.1-7.1-28.1-11.1-44-11.1C47.8,72.8,6,114.6,6,165.9S47.8,259,99.1,259
	c48.8,0,89-37.8,92.8-85.6h22l-8.5,27.8h-4.9c-4.1,0-7.5,3.4-7.5,7.5s3.4,7.5,7.5,7.5h27c4.1,0,7.5-3.4,7.5-7.5s-3.4-7.5-7.5-7.5
	H221l9.9-32.1l62.4-96.3l7.3,14.1c-26.4,16.5-43.9,45.7-43.9,79c0,51.3,41.8,93.1,93.1,93.1s93.1-41.8,93.1-93.1
	C442.8,114.6,401.1,72.8,349.7,72.8z M168.1,72.8l43.7,85.6h-19.9c-2.2-27-15.9-50.8-36.2-66.4L168.1,72.8z M176.8,158.4h-64
	l34.7-53.7C163.7,117.6,174.7,136.7,176.8,158.4z M99.1,244C56,244,21,209,21,165.9s35-78.1,78.1-78.1c12.9,0,25.1,3.2,35.8,8.7
	l-42.1,65.3c-1.5,2.3-1.6,5.2-0.3,7.7c1.3,2.4,3.8,3.9,6.6,3.9h77.7C173,213,139.6,244,99.1,244z M224.8,150.9l-43.7-85.7h99.3
	L224.8,150.9z M349.7,244c-43.1,0-78.1-35-78.1-78.1c0-27.5,14.3-51.7,35.8-65.6l35.6,69.1c1.3,2.6,4,4.1,6.7,4.1
	c1.2,0,2.3-0.3,3.4-0.8c3.7-1.9,5.1-6.4,3.2-10.1l-35.6-69.1c9-3.6,18.7-5.6,28.9-5.6c43.1,0,78.1,35,78.1,78.1
	C427.8,209,392.8,244,349.7,244z"/>
</svg>
