<?xml version="1.0" encoding="utf-8"?>
<!-- Generator: Adobe Illustrator 22.1.0, SVG Export Plug-In . SVG Version: 6.00 Build 0)  -->
<!DOCTYPE svg PUBLIC "-//W3C//DTD SVG 1.1//EN" "http://www.w3.org/Graphics/SVG/1.1/DTD/svg11.dtd">
<svg version="1.1" id="Layer_1" xmlns="http://www.w3.org/2000/svg" xmlns:xlink="http://www.w3.org/1999/xlink" x="0px" y="0px"
	 viewBox="0 0 566.9 566.9" style="enable-background:new 0 0 566.9 566.9;" xml:space="preserve">
<style type="text/css">
	.st0{display:none;}
	.st1{display:inline;}
	.st2{fill:none;stroke:#000000;stroke-width:2;stroke-miterlimit:10;}
	.st3{fill:none;stroke:#000000;stroke-miterlimit:10;}
	.st4{display:inline;fill:#663434;}
	.st5{fill:none;stroke:#FFFFFF;stroke-width:2;stroke-miterlimit:10;}
	.st6{fill:none;stroke:#FFFFFF;stroke-width:4;stroke-miterlimit:10;}
	.st7{fill:none;stroke:#FFFFFF;stroke-miterlimit:10;}
	.st8{fill:#FFFFFF;}
	.st9{fill:none;stroke:#FFFFFF;stroke-width:3;stroke-miterlimit:10;}
	.st10{fill:none;stroke:#000000;stroke-width:3;stroke-miterlimit:10;}
	.st11{fill:none;stroke:#000000;stroke-width:5;stroke-miterlimit:10;}
</style>
<g id="Layer_1_1_" class="st0">
	
		<image style="display:inline;overflow:visible;opacity:0.5;enable-background:new    ;" width="1024" height="826" xlink:href="91990B9126A1E881.jpeg"  transform="matrix(0.6864 0 0 0.6864 -135.8983 0)">
	</image>
</g>
<g id="Layer_2_1_" class="st0">
	<g class="st1">
		<path class="st2" d="M286.6,200.2c0,0,28.6,34.4,18.5,66.1c-8.7,27.1-16,42-18,45.7c-0.3,0.6-0.8,1.2-1.4,1.6
			c-4.1,2.8-21.5,15-27.3,22.3c-6.6,8.4-27.8,59.5-30,70.5s-7.9,35.2-7.9,35.2s-10.1,13.7-20.3,18.9c0,0-60.4,27.4-74.9-53.3
			c0,0,19.3-26.3,13.4-94.6S110,204.5,110,204.5l27.1-85.9c0,0-60.6-34.1-33.5-85.9c0,0,35.9,44.7,45.9,44.7l55.3-10.6"/>
		<path class="st2" d="M211.2,86.3c0,0-12.4-17.6-3.5-35.9c8.8-18.2,0.2-27.1,0.2-27.1s43.9,12.4,38.1,69.4"/>
		<path class="st2" d="M267.9,326.9c0,0,30,120.3,23.7,151.7s-18.9,64.6-18.9,64.6"/>
		<path class="st2" d="M225.4,228.1c0,0,25.9-3.7,22.9-17.8l-1.9-4.1C225.5,206.2,225.4,228.1,225.4,228.1
			C214.7,292.2,490.7,267,490.7,267C396.4,52.1,242.5,58,242.5,58"/>
		<path class="st3" d="M120.8,229c0,0-14.5-6.9-8-19.1C112.8,209.9,121.2,214,120.8,229z"/>
		<path class="st2" d="M120.8,229c0,0,76.6-220.7,203.1-128.6s-51.2,442.8-51.2,442.8l218-276.2"/>
		<g>
			<g>
				<path d="M113.7,216c3.2,0,3.2-5,0-5S110.5,216,113.7,216L113.7,216z"/>
			</g>
		</g>
		<g>
			<g>
				<path d="M113.6,215.9c3.2,0,3.2-5,0-5S110.4,215.9,113.6,215.9L113.6,215.9z"/>
			</g>
		</g>
		<g>
			<g>
				<path d="M111.1,213.4c-0.1,4.4,1.4,8.3,4.1,11.7c2,2.5,5.5-1,3.5-3.5c-1.8-2.3-2.7-5.2-2.6-8.1
					C116.1,210.2,111.1,210.2,111.1,213.4L111.1,213.4z"/>
			</g>
		</g>
		<g>
			<g>
				<path d="M113.2,216.7c1.4,2.8,2.1,5.9,2.9,8.8c0.9,3.1,5.7,1.8,4.8-1.3c-1-3.4-1.8-6.8-3.4-10
					C116.1,211.3,111.7,213.8,113.2,216.7L113.2,216.7z"/>
			</g>
		</g>
		<g>
			<g>
				<path d="M119.4,228.5c1.7,0,2.2-2.2,0.2-2.2C117.9,226.3,117.4,228.5,119.4,228.5L119.4,228.5z"/>
			</g>
		</g>
		<g>
			<g>
				<path d="M239.9,207.4c-2.6,0.4-4.9,1.6-6.7,3.5c-1,1-1.8,2.2-3,3.1c-0.8,0.6-1.4,1.2-1.8,2.2c-0.5,1.2,2.4,0.4,2.8-0.1
					c0.9-1.1,1.7-2.2,2.6-3.3c0.4-0.6-0.4-0.9-0.8-1c-0.7-0.1-1.5,0.3-1.9,0.8c-0.9,1.1-1.7,2.2-2.6,3.3c0.9,0,1.9-0.1,2.8-0.1
					c0.3-0.7,1.3-1.2,1.8-1.7c0.6-0.5,1-1.2,1.5-1.8c1.3-1.5,2.9-2.9,4.9-3.3C241,209,241.9,207.1,239.9,207.4L239.9,207.4z"/>
			</g>
		</g>
		<g>
			<g>
				<path d="M228,217.6c-0.4,1.4-0.9,2.9-1.2,4.4c-0.3,1.6-0.2,3.1-0.9,4.7c0.9-0.1,1.9-0.2,2.8-0.3c0-1.2,0-2.2,0.4-3.3
					s-2.5-0.7-2.9,0.3c-0.5,1.3-0.5,2.5-0.4,3.8c0,1.1,2.5,0.3,2.8-0.3c0.7-1.5,0.8-2.9,1-4.6c0.2-1.7,0.8-3.3,1.3-4.9
					C231.2,216.1,228.2,216.5,228,217.6L228,217.6z"/>
			</g>
		</g>
		<g>
			<g>
				<path d="M228.5,227.3c2.2-0.5,4.2-1.2,6.2-2.3c0.8-0.4,1.3-1.6-0.1-1.6c-0.1,0-0.1,0-0.2,0c-0.7,0-1.8,0.2-2,1.1
					c0,0.1,0,0.1,0,0.2c-0.1,0.4,0.3,0.6,0.6,0.7c3.7,0.7,9.2-3.1,11.9-5.4c3.8-3.3,4.9-8.1,1.7-12.2c-0.7-0.9-3.5,0.2-2.7,1.2
					c2.4,3.1,2.2,6.9-0.6,9.7c-0.9,0.9-2.1,1.7-3.2,2.4c-1.1,0.7-4.4,1.6-4.7,3.2c-0.7,0.4-1.3,0.7-2,1.1c0.1,0,0.1,0,0.2,0
					c0-0.5,0-1.1-0.1-1.6c-1.8,0.9-3.5,1.6-5.4,2C226.3,226.1,226.7,227.7,228.5,227.3L228.5,227.3z"/>
			</g>
		</g>
		<g>
			<g>
				<path d="M243.8,207.6c0.6,0.6,0.5,1.5,1.5,1.8c0.7,0.2,1.4,0,2-0.3c0.3-0.1,1-0.7,0.3-0.9c-0.3-0.1-0.4-0.4-0.6-0.6
					c-0.2-0.3-0.3-0.7-0.6-0.9C245.9,205.9,243.2,207,243.8,207.6L243.8,207.6z"/>
			</g>
		</g>
		<g>
			<g>
				<path d="M244.5,206c-6.2,0.6-12.5,6.5-14.8,12.1c-0.7,1.7-2.4,5.9-0.4,7.2c2,1.2,5.9-0.9,7.7-1.9c1.7-1,0.2-2.5-1.3-1.8
					c-2.1,1-4.3,1.7-6.6,2.2c0.2,0.7,0.4,1.4,0.6,2.1c4.8-1.2,9.7-2.8,13.5-6.1c4-3.5,4-7.1,1.8-11.8c-0.4-0.8-1.4-0.9-2.1-0.5
					c-2.9,1.5-5.3,3.6-7.5,6.1c-1.9,2.1-4.5,4.8-5.3,7.7c-1.8,6.6,9.5-0.8,11.1-2c2.2-1.6,4.7-3.7,4.6-6.7c0-1.8-0.8-3.5-2.8-3.4
					c-2.5,0.1-3.9,3.2-5.4,4.8c-2.2,2.4-5.2,4.3-6,7.7c-0.3,1.3,1.9,1,2.4,0.6c4.2-2.7,10-5.7,10.7-11.2c0.2-1.4-2.1-1-2.7-0.4
					c-1.7,2.1-3.3,4.3-4.7,6.6c-0.8,1.4,2.1,1.5,2.8,0.4c1.3-2.2,2.7-4.2,4.3-6.1c-0.9-0.1-1.8-0.2-2.7-0.4
					c-0.6,4.5-6.2,7.3-9.7,9.6c0.8,0.2,1.6,0.4,2.4,0.6c0.6-2.9,4.7-5.6,6.6-7.8c0.1-0.1,1.4-1.8,1.4-1.8c0.4,0.2,0,2.2-0.1,2.5
					c-0.7,2-3.2,3.5-4.9,4.6c-0.9,0.6-1.9,1.2-2.9,1.8c-0.8,0.4-1.6,1.3-1.5,0.2c0.1-1.4,2-3.2,2.9-4.3c2.3-2.9,4.8-5.6,8.1-7.4
					c-0.7-0.2-1.4-0.3-2.1-0.5c0.9,1.8,1.7,3.8,1.4,5.8c-0.3,2.3-2.1,3.9-4,5.2c-3.1,2.1-6.8,3.2-10.4,4.1c-1.8,0.5-1.3,2.5,0.6,2.1
					c2.5-0.6,4.9-1.4,7.3-2.5c-0.4-0.6-0.9-1.2-1.3-1.8c-1.1,0.6-2.4,1.5-3.7,1.5s-0.8,0-0.5-1.3c0.6-2.2,1.1-4.1,2.4-6
					c2.2-3.2,6.4-7.3,10.4-7.6C245.9,208,246.5,205.8,244.5,206L244.5,206z"/>
			</g>
		</g>
		<path class="st2" d="M134.6,384.3c0,0,35.9-179.8,2.4-265.6"/>
		<path class="st2" d="M149.4,77.4c0,0,31.8,159.3,90.3,111.3c0,0-133.2-6.2-19.2,252.9"/>
	</g>
</g>
<g id="Layer_3" class="st0">
	<rect class="st4" width="566.9" height="566.9"/>
	<g class="st1">
		<path class="st5" d="M287.8,200.2c0,0,28.6,34.4,18.5,66.1c-8.7,27.1-16,42-18,45.7c-0.3,0.6-0.8,1.2-1.4,1.6
			c-4.1,2.8-21.5,15-27.3,22.3c-6.6,8.4-27.8,59.5-30,70.5s-7.9,35.2-7.9,35.2s-10.1,13.7-20.3,18.9c0,0-60.4,27.4-74.9-53.3
			c0,0,19.3-26.3,13.4-94.6s-28.8-108.2-28.8-108.2l27.1-85.9c0,0-60.6-34.1-33.5-85.9c0,0,35.9,44.7,45.9,44.7l55.3-10.6"/>
		<path class="st5" d="M212.3,86.3c0,0-12.4-17.6-3.5-35.9s0.2-27.1,0.2-27.1s43.9,12.4,38.1,69.4"/>
		<path class="st5" d="M269,326.9c0,0,30,120.3,23.7,151.7s-18.9,64.6-18.9,64.6"/>
		<path class="st6" d="M226.6,228.1c0,0,25.9-3.7,22.9-17.8l-1.9-4.1C226.6,206.2,226.6,228.1,226.6,228.1
			C215.9,292.2,491.9,267,491.9,267C397.6,52.1,243.6,58,243.6,58"/>
		<path class="st7" d="M122,229c0,0-14.5-6.9-8-19.1C114,209.9,122.3,214,122,229z"/>
		<path class="st7" d="M122,229c0,0,76.6-220.7,203.1-128.6s-51.2,442.8-51.2,442.8l220.5-274.8"/>
		<g>
			<g>
				<path class="st8" d="M114.9,216c3.2,0,3.2-5,0-5C111.7,211,111.6,216,114.9,216L114.9,216z"/>
			</g>
		</g>
		<g>
			<g>
				<path class="st8" d="M114.8,215.9c3.2,0,3.2-5,0-5C111.6,210.9,111.5,215.9,114.8,215.9L114.8,215.9z"/>
			</g>
		</g>
		<g>
			<g>
				<path class="st8" d="M112.3,213.4c-0.1,4.4,1.4,8.3,4.1,11.7c2,2.5,5.5-1,3.5-3.5c-1.8-2.3-2.7-5.2-2.6-8.1
					C117.3,210.2,112.3,210.2,112.3,213.4L112.3,213.4z"/>
			</g>
		</g>
		<g>
			<g>
				<path class="st8" d="M114.3,216.7c1.4,2.8,2.1,5.9,2.9,8.8c0.9,3.1,5.7,1.8,4.8-1.3c-1-3.4-1.8-6.8-3.4-10
					C117.2,211.3,112.9,213.8,114.3,216.7L114.3,216.7z"/>
			</g>
		</g>
		<g>
			<g>
				<path class="st8" d="M120.6,228.5c1.7,0,2.2-2.2,0.2-2.2C119.1,226.3,118.6,228.5,120.6,228.5L120.6,228.5z"/>
			</g>
		</g>
		<g>
			<g>
				<path class="st8" d="M241.1,207.4c-2.6,0.4-4.9,1.6-6.7,3.5c-1,1-1.8,2.2-3,3.1c-0.8,0.6-1.4,1.2-1.8,2.2
					c-0.5,1.2,2.4,0.4,2.8-0.1c0.9-1.1,1.7-2.2,2.6-3.3c0.4-0.6-0.4-0.9-0.8-1c-0.7-0.1-1.5,0.3-1.9,0.8c-0.9,1.1-1.7,2.2-2.6,3.3
					c0.9,0,1.9-0.1,2.8-0.1c0.3-0.7,1.3-1.2,1.8-1.7c0.6-0.5,1-1.2,1.5-1.8c1.3-1.5,2.9-2.9,4.9-3.3
					C242.2,209,243.1,207.1,241.1,207.4L241.1,207.4z"/>
			</g>
		</g>
		<g>
			<g>
				<path class="st8" d="M229.1,217.6c-0.4,1.4-0.9,2.9-1.2,4.4c-0.3,1.6-0.2,3.1-0.9,4.7c0.9-0.1,1.9-0.2,2.8-0.3
					c0-1.2,0-2.2,0.4-3.3s-2.5-0.7-2.9,0.3c-0.5,1.3-0.5,2.5-0.4,3.8c0,1.1,2.5,0.3,2.8-0.3c0.7-1.5,0.8-2.9,1-4.6
					c0.2-1.7,0.8-3.3,1.3-4.9C232.3,216.1,229.4,216.5,229.1,217.6L229.1,217.6z"/>
			</g>
		</g>
		<g>
			<g>
				<path class="st8" d="M229.7,227.3c2.2-0.5,4.2-1.2,6.2-2.3c0.8-0.4,1.3-1.6-0.1-1.6c-0.1,0-0.1,0-0.2,0c-0.7,0-1.8,0.2-2,1.1
					c0,0.1,0,0.1,0,0.2c-0.1,0.4,0.3,0.6,0.6,0.7c3.7,0.7,9.2-3.1,11.9-5.4c3.8-3.3,4.9-8.1,1.7-12.2c-0.7-0.9-3.5,0.2-2.7,1.2
					c2.4,3.1,2.2,6.9-0.6,9.7c-0.9,0.9-2.1,1.7-3.2,2.4c-1.1,0.7-4.4,1.6-4.7,3.2c-0.7,0.4-1.3,0.7-2,1.1c0.1,0,0.1,0,0.2,0
					c0-0.5,0-1.1-0.1-1.6c-1.8,0.9-3.5,1.6-5.4,2C227.5,226.1,227.9,227.7,229.7,227.3L229.7,227.3z"/>
			</g>
		</g>
		<g>
			<g>
				<path class="st8" d="M245,207.6c0.6,0.6,0.5,1.5,1.5,1.8c0.7,0.2,1.4,0,2-0.3c0.3-0.1,1-0.7,0.3-0.9c-0.3-0.1-0.4-0.4-0.6-0.6
					c-0.2-0.3-0.3-0.7-0.6-0.9C247.1,205.9,244.4,207,245,207.6L245,207.6z"/>
			</g>
		</g>
		<g>
			<g>
				<path class="st8" d="M245.7,206c-6.2,0.6-12.5,6.5-14.8,12.1c-0.7,1.7-2.4,5.9-0.4,7.2c2,1.2,5.9-0.9,7.7-1.9
					c1.7-1,0.2-2.5-1.3-1.8c-2.1,1-4.3,1.7-6.6,2.2c0.2,0.7,0.4,1.4,0.6,2.1c4.8-1.2,9.7-2.8,13.5-6.1c4-3.5,4-7.1,1.8-11.8
					c-0.4-0.8-1.4-0.9-2.1-0.5c-2.9,1.5-5.3,3.6-7.5,6.1c-1.9,2.1-4.5,4.8-5.3,7.7c-1.8,6.6,9.5-0.8,11.1-2c2.2-1.6,4.7-3.7,4.6-6.7
					c0-1.8-0.8-3.5-2.8-3.4c-2.5,0.1-3.9,3.2-5.4,4.8c-2.2,2.4-5.2,4.3-6,7.7c-0.3,1.3,1.9,1,2.4,0.6c4.2-2.7,10-5.7,10.7-11.2
					c0.2-1.4-2.1-1-2.7-0.4c-1.7,2.1-3.3,4.3-4.7,6.6c-0.8,1.4,2.1,1.5,2.8,0.4c1.3-2.2,2.7-4.2,4.3-6.1c-0.9-0.1-1.8-0.2-2.7-0.4
					c-0.6,4.5-6.2,7.3-9.7,9.6c0.8,0.2,1.6,0.4,2.4,0.6c0.6-2.9,4.7-5.6,6.6-7.8c0.1-0.1,1.4-1.8,1.4-1.8c0.4,0.2,0,2.2-0.1,2.5
					c-0.7,2-3.2,3.5-4.9,4.6c-0.9,0.6-1.9,1.2-2.9,1.8c-0.8,0.4-1.6,1.3-1.5,0.2c0.1-1.4,2-3.2,2.9-4.3c2.3-2.9,4.8-5.6,8.1-7.4
					c-0.7-0.2-1.4-0.3-2.1-0.5c0.9,1.8,1.7,3.8,1.4,5.8c-0.3,2.3-2.1,3.9-4,5.2c-3.1,2.1-6.8,3.2-10.4,4.1c-1.8,0.5-1.3,2.5,0.6,2.1
					c2.5-0.6,4.9-1.4,7.3-2.5c-0.4-0.6-0.9-1.2-1.3-1.8c-1.1,0.6-2.4,1.5-3.7,1.5s-0.8,0-0.5-1.3c0.6-2.2,1.1-4.1,2.4-6
					c2.2-3.2,6.4-7.3,10.4-7.6C247.1,208,247.7,205.8,245.7,206L245.7,206z"/>
			</g>
		</g>
		<path class="st7" d="M135.8,384.3c0,0,35.9-179.8,2.4-265.6"/>
		<path class="st9" d="M150.6,77.4c0,0,31.8,159.3,90.3,111.3c0,0-133.2-6.2-19.2,252.9"/>
	</g>
</g>
<g id="Layer_4">
	<g>
		<path class="st10" d="M287.8,200.2c0,0,28.6,34.4,18.5,66.1c-8.7,27.1-16,42-18,45.7c-0.3,0.6-0.8,1.2-1.4,1.6
			c-4.1,2.8-21.5,15-27.3,22.3c-6.6,8.4-27.8,59.5-30,70.5s-7.9,35.2-7.9,35.2s-10.1,13.7-20.3,18.9c0,0-60.4,27.4-74.9-53.3
			c0,0,19.3-26.3,13.4-94.6s-28.8-108.2-28.8-108.2l27.1-85.9c0,0-60.6-34.1-33.5-85.9c0,0,35.9,44.7,45.9,44.7l55.3-10.6"/>
		<path class="st10" d="M212.3,86.3c0,0-12.4-17.6-3.5-35.9s0.2-27.1,0.2-27.1s43.9,12.4,38.1,69.4"/>
		<path class="st10" d="M269,326.9c0,0,30,120.3,23.7,151.7s-18.9,64.6-18.9,64.6"/>
		<path class="st11" d="M221.7,441.6c0,0-84-134.3,4.9-213.5c0,0,25.9-3.7,22.9-17.8l-1.9-4.1c-20.9,0-21,21.9-21,21.9
			C215.9,292.2,491.9,267,491.9,267C397.6,52.1,243.6,58,243.6,58"/>
		<path class="st3" d="M122,229c0,0-14.5-6.9-8-19.1C114,209.9,122.3,214,122,229z"/>
		<path class="st10" d="M122,229c0,0,76.6-220.7,203.1-128.6s-51.2,442.8-51.2,442.8l220.5-274.8"/>
		<g>
			<g>
				<path d="M114.9,216c3.2,0,3.2-5,0-5C111.7,211,111.6,216,114.9,216L114.9,216z"/>
			</g>
		</g>
		<g>
			<g>
				<path d="M114.8,215.9c3.2,0,3.2-5,0-5C111.6,210.9,111.5,215.9,114.8,215.9L114.8,215.9z"/>
			</g>
		</g>
		<g>
			<g>
				<path d="M112.3,213.4c-0.1,4.4,1.4,8.3,4.1,11.7c2,2.5,5.5-1,3.5-3.5c-1.8-2.3-2.7-5.2-2.6-8.1
					C117.3,210.2,112.3,210.2,112.3,213.4L112.3,213.4z"/>
			</g>
		</g>
		<g>
			<g>
				<path d="M114.3,216.7c1.4,2.8,2.1,5.9,2.9,8.8c0.9,3.1,5.7,1.8,4.8-1.3c-1-3.4-1.8-6.8-3.4-10
					C117.2,211.3,112.9,213.8,114.3,216.7L114.3,216.7z"/>
			</g>
		</g>
		<g>
			<g>
				<path d="M120.6,228.5c1.7,0,2.2-2.2,0.2-2.2C119.1,226.3,118.6,228.5,120.6,228.5L120.6,228.5z"/>
			</g>
		</g>
		<g>
			<g>
				<path d="M241.1,207.4c-2.6,0.4-4.9,1.6-6.7,3.5c-1,1-1.8,2.2-3,3.1c-0.8,0.6-1.4,1.2-1.8,2.2c-0.5,1.2,2.4,0.4,2.8-0.1
					c0.9-1.1,1.7-2.2,2.6-3.3c0.4-0.6-0.4-0.9-0.8-1c-0.7-0.1-1.5,0.3-1.9,0.8c-0.9,1.1-1.7,2.2-2.6,3.3c0.9,0,1.9-0.1,2.8-0.1
					c0.3-0.7,1.3-1.2,1.8-1.7c0.6-0.5,1-1.2,1.5-1.8c1.3-1.5,2.9-2.9,4.9-3.3C242.2,209,243.1,207.1,241.1,207.4L241.1,207.4z"/>
			</g>
		</g>
		<g>
			<g>
				<path d="M229.1,217.6c-0.4,1.4-0.9,2.9-1.2,4.4c-0.3,1.6-0.2,3.1-0.9,4.7c0.9-0.1,1.9-0.2,2.8-0.3c0-1.2,0-2.2,0.4-3.3
					s-2.5-0.7-2.9,0.3c-0.5,1.3-0.5,2.5-0.4,3.8c0,1.1,2.5,0.3,2.8-0.3c0.7-1.5,0.8-2.9,1-4.6c0.2-1.7,0.8-3.3,1.3-4.9
					C232.3,216.1,229.4,216.5,229.1,217.6L229.1,217.6z"/>
			</g>
		</g>
		<g>
			<g>
				<path d="M229.7,227.3c2.2-0.5,4.2-1.2,6.2-2.3c0.8-0.4,1.3-1.6-0.1-1.6c-0.1,0-0.1,0-0.2,0c-0.7,0-1.8,0.2-2,1.1
					c0,0.1,0,0.1,0,0.2c-0.1,0.4,0.3,0.6,0.6,0.7c3.7,0.7,9.2-3.1,11.9-5.4c3.8-3.3,4.9-8.1,1.7-12.2c-0.7-0.9-3.5,0.2-2.7,1.2
					c2.4,3.1,2.2,6.9-0.6,9.7c-0.9,0.9-2.1,1.7-3.2,2.4c-1.1,0.7-4.4,1.6-4.7,3.2c-0.7,0.4-1.3,0.7-2,1.1c0.1,0,0.1,0,0.2,0
					c0-0.5,0-1.1-0.1-1.6c-1.8,0.9-3.5,1.6-5.4,2C227.5,226.1,227.9,227.7,229.7,227.3L229.7,227.3z"/>
			</g>
		</g>
		<g>
			<g>
				<path d="M248.8,208.1c-0.3-0.1-0.4-0.4-0.6-0.6c-0.2-0.3-0.3-0.7-0.6-0.9c-0.6-0.6-3.3,0.4-2.7,1s0.5,1.5,1.5,1.8
					c0.7,0.2,1.4,0,2-0.3C248.8,208.9,249.5,208.3,248.8,208.1L248.8,208.1z"/>
			</g>
		</g>
		<g>
			<g>
				<path d="M245.7,206c-6.2,0.6-12.5,6.5-14.8,12.1c-0.7,1.7-2.4,5.9-0.4,7.2c2,1.2,5.9-0.9,7.7-1.9c1.7-1,0.2-2.5-1.3-1.8
					c-2.1,1-4.3,1.7-6.6,2.2c0.2,0.7,0.4,1.4,0.6,2.1c4.8-1.2,9.7-2.8,13.5-6.1c4-3.5,4-7.1,1.8-11.8c-0.4-0.8-1.4-0.9-2.1-0.5
					c-2.9,1.5-5.3,3.6-7.5,6.1c-1.9,2.1-4.5,4.8-5.3,7.7c-1.8,6.6,9.5-0.8,11.1-2c2.2-1.6,4.7-3.7,4.6-6.7c0-1.8-0.8-3.5-2.8-3.4
					c-2.5,0.1-3.9,3.2-5.4,4.8c-2.2,2.4-5.2,4.3-6,7.7c-0.3,1.3,1.9,1,2.4,0.6c4.2-2.7,10-5.7,10.7-11.2c0.2-1.4-2.1-1-2.7-0.4
					c-1.7,2.1-3.3,4.3-4.7,6.6c-0.8,1.4,2.1,1.5,2.8,0.4c1.3-2.2,2.7-4.2,4.3-6.1c-0.9-0.1-1.8-0.2-2.7-0.4
					c-0.6,4.5-6.2,7.3-9.7,9.6c0.8,0.2,1.6,0.4,2.4,0.6c0.6-2.9,4.7-5.6,6.6-7.8c0.1-0.1,1.4-1.8,1.4-1.8c0.4,0.2,0,2.2-0.1,2.5
					c-0.7,2-3.2,3.5-4.9,4.6c-0.9,0.6-1.9,1.2-2.9,1.8c-0.8,0.4-1.6,1.3-1.5,0.2c0.1-1.4,2-3.2,2.9-4.3c2.3-2.9,4.8-5.6,8.1-7.4
					c-0.7-0.2-1.4-0.3-2.1-0.5c0.9,1.8,1.7,3.8,1.4,5.8c-0.3,2.3-2.1,3.9-4,5.2c-3.1,2.1-6.8,3.2-10.4,4.1c-1.8,0.5-1.3,2.5,0.6,2.1
					c2.5-0.6,4.9-1.4,7.3-2.5c-0.4-0.6-0.9-1.2-1.3-1.8c-1.1,0.6-2.4,1.5-3.7,1.5s-0.8,0-0.5-1.3c0.6-2.2,1.1-4.1,2.4-6
					c2.2-3.2,6.4-7.3,10.4-7.6C247.1,208,247.7,205.8,245.7,206L245.7,206z"/>
			</g>
		</g>
		<path class="st2" d="M135.8,384.3c0,0,35.9-179.8,2.4-265.6"/>
	</g>
	<path class="st10" d="M248.9,207c0,0-6.6-104.2-98.3-129.6"/>
</g>
</svg>
