<?xml version="1.0" encoding="utf-8"?>
<!-- Generator: Adobe Illustrator 22.1.0, SVG Export Plug-In . SVG Version: 6.00 Build 0)  -->
<!DOCTYPE svg PUBLIC "-//W3C//DTD SVG 1.1//EN" "http://www.w3.org/Graphics/SVG/1.1/DTD/svg11.dtd">
<svg version="1.1" id="Layer_1" xmlns="http://www.w3.org/2000/svg" xmlns:xlink="http://www.w3.org/1999/xlink" x="0px" y="0px"
	 viewBox="0 0 477.5 291" style="enable-background:new 0 0 477.5 291;" xml:space="preserve">
<style type="text/css">
	.st0{fill:none;stroke:#000000;}
</style>
<g>
	<path class="st0" d="M65.3,21c3.9,0.3,7.3,1.4,10.4,3.1c3,1.7,5.5,3.6,7.5,5.7c2,2.1,3.5,4.1,4.5,6.2c1,2.1,1.5,3.6,1.5,4.8
		c0,2.2-0.4,3.6-1.2,4c-0.8,0.4-1.8-0.5-3-2.8c-0.6-1.1-1.4-2.5-2.7-4.1c-1.2-1.6-2.7-3.1-4.5-4.5c-1.8-1.4-3.8-2.6-6.1-3.5
		c-2.3-0.9-4.8-1.4-7.6-1.3c-2,0.1-4.6,0.7-7.7,1.8c-3.1,1.1-6,3.1-8.6,6.3c-2.6,3.1-4.6,7.5-6,13c-1.4,5.6-1.5,12.9-0.3,22
		c0.6,4,2.2,9.3,4.9,15.8c2.7,6.5,6,13.8,9.7,21.9c3.7,8.1,7.7,16.7,12,25.9c4.3,9.2,8.2,18.4,11.9,27.7c3.6,9.3,6.7,18.5,9.1,27.5
		c2.4,9,3.8,17.4,4,25.1c0.1,4.8-0.7,9.6-2.5,14.5c-1.8,4.9-4.5,9.4-8.1,13.4c-3.6,4-8.1,7.3-13.4,9.8c-5.3,2.5-11.4,3.7-18.5,3.6
		c-8.7-0.1-15.8-1.6-21.2-4.5c-5.5-2.9-9.6-6.5-12.4-10.9c-2.8-4.3-4.6-9.1-5.3-14.4c-0.7-5.2-0.6-10.2,0.3-15
		c0.8-4.8,2.2-9,4.2-12.5c1.9-3.6,4.1-6,6.6-7.2c1.3-0.7,2.4-0.8,3.3-0.4c0.8,0.4,1.4,0.9,1.8,1.7c0.3,0.7,0.4,1.5,0.2,2.3
		c-0.2,0.8-0.8,1.4-1.7,1.8c-1.9,0.7-3.5,2.4-4.9,5.3c-1.4,2.8-2.3,6.2-2.7,10.1c-0.4,3.9-0.2,8,0.6,12.2c0.8,4.2,2.4,8.1,5,11.5
		c2.6,3.4,6.1,6.2,10.5,8.4c4.5,2.1,10.1,2.9,17,2.3c8.1-0.6,14.6-3.3,19.3-8.4c4.7-5,7.4-11.6,7.9-19.7c0.3-5.5-0.7-12-3-19.8
		c-2.3-7.7-5.4-16-9.2-24.9c-3.8-8.9-8-18-12.6-27.6c-4.6-9.5-9-18.7-13.2-27.6c-4.2-8.9-7.8-17.1-10.9-24.9
		c-3.1-7.7-4.9-14.3-5.6-19.8c-1.2-9.6-0.8-17.9,1.2-24.9c2-7,5-12.7,8.9-17.2c4-4.5,8.6-7.7,14-9.6C54.2,21.2,59.7,20.5,65.3,21z"
		/>
	<path class="st0" d="M100.3,124.1c-1-8.8-0.8-17.2,0.5-25.1c1.3-8,3.5-15.3,6.4-22.1c2.9-6.8,6.6-12.9,11-18.3
		c4.4-5.4,9.2-9.9,14.4-13.6c5.2-3.7,10.6-6.4,16.3-8.2c5.7-1.8,11.4-2.4,17-2c7,0.6,13.7,3,20.1,7.3c6.4,4.3,11.9,10.9,16.5,19.7
		c4.6,8.8,8.1,20,10.4,33.5c2.3,13.5,2.8,29.8,1.6,48.7c-0.7,10.1-2,20.3-3.9,30.4c-1.9,10.1-4.5,19.8-7.5,29.1
		c-3.1,9.3-6.7,17.9-10.9,25.8c-4.2,7.9-8.9,14.8-14,20.6c-5.2,5.8-10.8,10.4-17,13.7c-6.1,3.3-12.6,4.9-19.5,4.8
		c-6.1-0.1-11.4-1.4-15.9-4c-4.5-2.6-8.4-6-11.5-10.2c-3.2-4.2-5.8-9.1-7.8-14.5c-2.1-5.5-3.7-11.1-4.9-16.9
		c-1.2-5.8-2.1-11.5-2.6-17.2c-0.5-5.7-0.8-10.9-0.8-15.6c-0.1-4.7,0-8.8,0.1-12.2c0.1-3.4,0.2-5.6,0.3-6.8c0.6-8,2.1-16,4.5-24
		c-0.7-2.7-1.2-5.3-1.5-7.8c-0.3-2.5-0.6-4.8-0.8-6.8s-0.3-3.7-0.3-5.2C100.4,125.8,100.3,124.7,100.3,124.1z M131.7,179
		c-4.9-0.4-9-1.8-12.4-4.1c-3.3-2.3-6.1-5.1-8.4-8.4c-1.2,8.7-1.9,17.2-2.1,25.6c-0.2,8.4,0.2,16.3,1.1,23.6
		c0.9,7.3,2.3,14.1,4.3,20.1c1.9,6.1,4.3,11.2,7.2,15.4c2.8,4.2,6.1,7.4,9.9,9.4c3.7,2.1,7.9,2.8,12.4,2.1c4.5-0.7,8.7-2.8,12.7-6.3
		c4-3.5,7.8-8,11.4-13.6c3.6-5.6,6.8-12,9.9-19.3c3-7.3,5.7-15.1,8.2-23.5c2.4-8.3,4.6-17,6.3-26.1c1.8-9,3.2-18,4.3-26.9
		c1.7-13.5,2.3-26.4,2-38.7c-0.3-12.3-1.5-23.3-3.6-33c-2.1-9.7-5-17.8-8.9-24.2c-3.8-6.5-8.5-10.6-13.9-12.5
		c-4.6-1.6-9.6-1.3-15.2,0.8c-5.6,2.1-10.9,6-15.9,11.8c-5.1,5.8-9.6,13.5-13.5,23c-4,9.6-6.6,21-7.9,34.4c2.4-4.5,4.9-8.6,7.3-12.4
		c2.4-3.8,4.6-7.2,6.5-10.1c1.9-2.9,3.6-5.2,4.9-7c1.3-1.8,2.2-2.9,2.5-3.3c1.1-1.3,2.4-2.3,3.9-2.8c1.5-0.5,2.8-0.7,4-0.5
		s1.9,0.6,2.3,1.4c0.4,0.8,0,1.8-1.1,3c-7,7.7-13.1,16.1-18.1,25.4c-5.1,9.2-9.3,18.9-12.6,29.1c0.3,3,0.9,6.3,1.6,10
		c0.7,3.7,1.7,7.3,2.9,11c1.2,3.7,2.8,7.1,4.6,10.4c1.8,3.2,4.1,5.9,6.8,8c0.7,0.6,1.3,0.9,2,1.2c0.7,0.2,1.3,0.5,1.9,0.8
		c0.6,0.3,1.1,0.6,1.5,0.8c0.4,0.3,0.6,0.8,0.6,1.4c0,1.2-0.8,2.2-2.3,3C137.3,179,135,179.2,131.7,179z"/>
	<path class="st0" d="M251,245.1c1,1.6,1.6,3.3,1.8,5.2c0.2,1.9,0,3.6-0.6,5c-0.6,1.4-1.4,2.5-2.7,3.2c-1.2,0.7-2.7,0.6-4.3-0.3
		c-2.3-1-4.3-2.2-5.8-3.7c-1.5-1.4-2.8-3-3.8-4.7c-1.1-1.7-2-3.4-2.8-5.1c-0.8-1.7-1.5-3.4-2.2-5.1c-1.2-2.6-2.1-7.5-2.7-14.8
		c-0.6-7.3-0.9-16-1.2-26.1c-0.2-10.1-0.2-21.1,0-33.1c0.2-12,0.5-24.1,0.9-36.3c0.4-12.2,0.8-24,1.3-35.4c0.5-11.4,1-21.6,1.6-30.5
		c0.6-8.9,1.1-16.1,1.6-21.5c0.5-5.4,0.9-8.2,1.1-8.3c0.3-0.2,1.1-0.3,2.4-0.1c1.3,0.2,2.7,0.4,4.3,0.8c1.6,0.4,3.2,0.9,4.9,1.7
		c1.7,0.7,3.3,1.6,4.6,2.6c3-0.4,6.6-0.8,10.9-1.1c4.2-0.3,8.8-0.3,13.7,0c4.9,0.3,10,0.9,15.3,1.9c5.3,1,10.5,2.5,15.6,4.3
		c1.4,0.6,2.4,1.3,2.9,2.2c0.5,0.9,0.7,1.8,0.5,2.7c-0.2,0.9-0.6,1.6-1.3,2.2c-0.7,0.6-1.4,0.8-2.2,0.7c-7.2-1-13.6-1.6-19.2-1.8
		c-5.6-0.2-10.5-0.1-14.7,0.3c-4.2,0.3-7.8,0.8-10.9,1.5s-5.5,1.3-7.5,2c-0.6,7.5-1.1,15.3-1.8,23.6c-0.6,8.3-1.3,16.8-1.9,25.6
		c2,0.2,4.5,0.5,7.5,0.9c3,0.4,6.2,0.8,9.6,1.3c3.4,0.4,6.8,0.9,10.2,1.3c3.4,0.4,6.5,0.8,9.4,1.2c2.8,0.3,5.3,0.6,7.3,0.8
		s3.3,0.2,3.8,0.1c1.7-0.3,3-0.1,3.9,0.6c0.9,0.7,1.5,1.6,1.6,2.5c0.1,0.9-0.2,1.9-0.9,2.8c-0.7,0.9-1.9,1.3-3.6,1.3
		c-0.4,0-1.7,0-3.8,0.1c-2.1,0.1-4.7,0.1-7.8,0.2c-3.1,0.1-6.4,0.1-10.1,0.3c-3.7,0.1-7.3,0.2-10.9,0.3c-3.6,0.1-6.9,0.3-9.9,0.5
		c-3.1,0.2-5.5,0.4-7.4,0.7c-1,13-1.9,26.1-2.6,39.1c-0.7,13-1.1,25.2-1.1,36.6s0.5,21.6,1.5,30.6C246.6,232.9,248.4,240,251,245.1z
		"/>
	<path class="st0" d="M343.8,12.7c2.4-0.1,4.7,0.1,6.8,0.8c2.1,0.6,3.9,1.4,5.3,2.3c1.4,0.9,2.5,1.8,3.1,2.7
		c0.6,0.8,0.6,1.3-0.1,1.4c-0.3,0.1-0.9,0.2-1.8,0.3c-0.9,0.1-2,0.4-3.3,0.8c0.2,0.8,0.2,1.7-0.2,2.7c-0.9,3.1-1.7,8.2-2.3,15.4
		c-0.7,7.1-1.2,15.5-1.7,25.2c-0.4,9.7-0.8,20.3-1.1,31.9c-0.3,11.6-0.5,23.4-0.6,35.4c-0.1,12-0.2,23.9-0.3,35.7
		c-0.1,11.7-0.2,22.7-0.2,32.8c-0.1,10.1-0.1,19.1-0.3,26.8c-0.1,7.7-0.2,13.6-0.3,17.6c0.2-0.1,0.6-0.2,1-0.2
		c2.4-0.1,4.7-0.1,6.8,0.1c2.1,0.2,3.7,0.6,4.9,1.3c1.2,0.7,1.9,1.7,2.2,3.1c0.2,1.4-0.3,3.1-1.7,5.3c-0.3,0.6-1.6,0.8-3.7,0.7
		c-2.1-0.1-5,0.1-8.7,0.5c-3.7,0.4-8.1,1.5-13.2,3.2c-5.1,1.7-10.9,4.6-17.2,8.7c-2.1,1.3-3.9,2-5.3,1.9c-1.4-0.1-2.5-0.5-3.3-1.4
		c-0.8-0.9-1.3-2-1.6-3.3c-0.3-1.3-0.4-2.5-0.4-3.8c0-0.6,0.6-1.2,1.7-2c1.1-0.8,2.6-1.6,4.5-2.5c1.9-0.9,4-1.8,6.4-2.8
		c2.4-0.9,4.9-1.9,7.4-2.8c-0.2-0.7-0.2-1.4,0-2.3c1-6.1,1.9-13.5,2.7-22.1c0.8-8.6,1.5-18,2.1-28.1c0.6-10.1,1.2-20.7,1.7-31.8
		c0.5-11.1,0.9-22.2,1.3-33.2c0.4-11.1,0.8-21.9,1.3-32.4s1-20.3,1.6-29.2c0.6-9,1.2-16.9,1.8-23.7c0.7-6.8,1.5-12.1,2.5-15.8
		c0.3-1.4,0.8-2.8,1.5-4c0.7-1.2,1.4-2.3,2.3-3.3c-2.3,1.2-4.9,2.8-7.6,4.6c-2.7,1.8-5.6,4.2-8.6,7c-3,2.8-6.1,6.2-9.3,10.2
		c-3.2,4-6.4,8.5-9.8,13.8c-1.3,2.1-2.8,3.3-4.4,3.4c-1.6,0.2-3.1-0.3-4.3-1.4c-1.3-1.1-2.2-2.6-2.8-4.6c-0.6-1.9-0.4-3.9,0.3-5.9
		c0.3-0.8,1.6-2.3,3.7-4.5c2.1-2.2,4.7-4.8,7.8-7.7c3.1-2.9,6.4-5.9,10-8.9c3.6-3.1,7-5.9,10.2-8.5c3.2-2.6,6-4.8,8.3-6.4
		C341.6,13.7,343.2,12.8,343.8,12.7z"/>
	<path class="st0" d="M427.2,33.7c4.1-0.3,7.6,1.3,10.4,5c2.8,3.7,5,9,6.8,15.9c1.7,6.9,3.1,15.1,4,24.7c0.9,9.6,1.7,20,2.3,31.4
		c0.6,11.4,1,23.3,1.3,35.9c0.3,12.6,0.8,25.4,1.3,38.4c0.6,13,1.3,26,2.3,38.9c1,12.9,2.4,25.3,4.2,37.1c0.3,2.4-0.5,4-2.5,4.8
		c-2,0.7-4.3,0.9-6.9,0.6c-2.6-0.3-5.1-1-7.5-1.9c-2.4-0.9-3.8-1.9-4.1-2.8c-1.1-2.9-2-7.4-2.6-13.6c-0.6-6.2-1.1-13.4-1.3-21.8
		c-0.3-8.4-0.4-17.5-0.5-27.6c-0.1-10-0.1-20.4-0.1-31.1c-3.3,0.2-7.9,1.2-13.8,2.9c-5.8,1.7-12.1,3.9-18.6,6.4
		c-1.2,10.8-2.3,21-3.3,30.6c-1,9.6-1.8,18.1-2.5,25.5c-0.7,7.3-1.2,13.2-1.7,17.6c-0.4,4.4-0.7,6.7-0.7,6.8
		c-0.2,0.3-0.7,0.6-1.4,0.7c-0.7,0.1-1.6,0-2.5-0.4c-0.9-0.4-1.8-1.1-2.6-2c-0.8-0.9-1.3-2.2-1.7-3.8c-0.2-1.3-0.3-4.1-0.2-8.2
		c0.1-4.1,0.3-9.3,0.7-15.5c0.4-6.2,0.9-13.3,1.7-21.2c0.7-7.9,1.6-16.3,2.6-25.2c-3.9,1.8-7.6,3.6-11.2,5.3
		c-3.6,1.8-6.7,3.5-9.5,5.2c-2.8,1.7-5.1,3.3-7,4.8c-1.9,1.6-3.1,2.9-3.5,4c-0.6,1.3-1,1.4-1.3,0.1c-0.3-1.3-0.3-3.1-0.2-5.4
		s0.5-4.8,1.1-7.5c0.6-2.7,1.4-4.8,2.5-6.3c0.8-1.1,2.1-2.3,4.1-3.4c1.9-1.2,4.3-2.3,7-3.4c2.7-1.1,5.8-2.2,9.1-3.3
		c3.3-1.1,6.8-2.1,10.4-3.1c1.2-10.2,2.6-20.6,4.1-31.1s3.1-20.8,4.9-30.7c1.8-10,3.7-19.3,5.8-28.1c2.1-8.7,4.2-16.4,6.4-23
		c2.2-6.6,4.5-11.9,6.9-15.9C422.1,36,424.6,33.9,427.2,33.7z M429.5,42.6c-1.7-0.3-3.3,1.1-4.9,4.3c-1.6,3.2-3.2,7.8-4.8,13.6
		c-1.6,5.8-3.1,12.8-4.6,20.8s-3,16.7-4.4,26c-1.4,9.3-2.8,19-4.1,29c-1.3,10-2.5,20-3.6,29.9c6.1-1.3,12-2.4,17.5-3.2
		c5.6-0.8,10.1-1.2,13.7-1.2c0-9.6,0.1-19.1,0.2-28.7c0.1-9.6,0.2-18.7,0.2-27.5c0-8.7-0.1-16.9-0.2-24.5
		c-0.1-7.6-0.4-14.2-0.8-19.8c-0.4-5.6-0.9-10.1-1.6-13.4C431.5,44.6,430.6,42.8,429.5,42.6z"/>
</g>
</svg>
